<svg width="22" height="22" viewBox="0 0 22 22" fill="none" xmlns="http://www.w3.org/2000/svg">
<path d="M12.4348 1.43478C12.4348 1.05425 12.2836 0.689312 12.0145 0.420238C11.7455 0.151164 11.3805 0 11 0C10.6195 0 10.2545 0.151164 9.98546 0.420238C9.71638 0.689312 9.56522 1.05425 9.56522 1.43478V9.56522H1.43478C1.05425 9.56522 0.689312 9.71638 0.420238 9.98546C0.151164 10.2545 0 10.6195 0 11C0 11.3805 0.151164 11.7455 0.420238 12.0145C0.689312 12.2836 1.05425 12.4348 1.43478 12.4348H9.56522V20.5652C9.56522 20.9457 9.71638 21.3107 9.98546 21.5798C10.2545 21.8488 10.6195 22 11 22C11.3805 22 11.7455 21.8488 12.0145 21.5798C12.2836 21.3107 12.4348 20.9457 12.4348 20.5652V12.4348H20.5652C20.9457 12.4348 21.3107 12.2836 21.5798 12.0145C21.8488 11.7455 22 11.3805 22 11C22 10.6195 21.8488 10.2545 21.5798 9.98546C21.3107 9.71638 20.9457 9.56522 20.5652 9.56522H12.4348V1.43478Z" fill="#FF5722"/>
</svg>
