<svg width="24" height="25" viewBox="0 0 24 25" fill="none" xmlns="http://www.w3.org/2000/svg">
<path d="M1.17725 1.26855H3.09125C4.27925 1.26855 5.21425 2.29155 5.11525 3.46855L4.20225 14.4246C4.1666 14.849 4.2195 15.2762 4.3576 15.6792C4.49571 16.0821 4.716 16.4519 5.00452 16.7653C5.29304 17.0786 5.6435 17.3286 6.03369 17.4994C6.42389 17.6702 6.8453 17.7581 7.27125 17.7576H18.9862C20.5702 17.7576 21.9562 16.4596 22.0772 14.8866L22.6712 6.63655C22.8032 4.81055 21.4172 3.32555 19.5802 3.32555H5.37925M8.87725 7.86855H22.0772M16.8522 23.2686C17.2169 23.2686 17.5667 23.1237 17.8245 22.8658C18.0824 22.608 18.2272 22.2582 18.2272 21.8936C18.2272 21.5289 18.0824 21.1791 17.8245 20.9213C17.5667 20.6634 17.2169 20.5186 16.8522 20.5186C16.4876 20.5186 16.1378 20.6634 15.88 20.9213C15.6221 21.1791 15.4772 21.5289 15.4772 21.8936C15.4772 22.2582 15.6221 22.608 15.88 22.8658C16.1378 23.1237 16.4876 23.2686 16.8522 23.2686ZM8.05225 23.2686C8.41692 23.2686 8.76666 23.1237 9.02452 22.8658C9.28238 22.608 9.42725 22.2582 9.42725 21.8936C9.42725 21.5289 9.28238 21.1791 9.02452 20.9213C8.76666 20.6634 8.41692 20.5186 8.05225 20.5186C7.68757 20.5186 7.33784 20.6634 7.07997 20.9213C6.82211 21.1791 6.67725 21.5289 6.67725 21.8936C6.67725 22.2582 6.82211 22.608 7.07997 22.8658C7.33784 23.1237 7.68757 23.2686 8.05225 23.2686Z" stroke="#FF5722" stroke-width="1.5" stroke-miterlimit="10" stroke-linecap="round" stroke-linejoin="round"/>
</svg>
