<svg width="96" height="97" viewBox="0 0 96 97" fill="none" xmlns="http://www.w3.org/2000/svg">
<g filter="url(#filter0_d_2085_14207)">
<circle cx="45.6113" cy="46" r="30" fill="#FF5722"/>
<path d="M34.6113 35H36.5253C37.7133 35 38.6483 36.023 38.5493 37.2L37.6363 48.156C37.6007 48.5804 37.6536 49.0077 37.7917 49.4106C37.9298 49.8135 38.1501 50.1834 38.4386 50.4967C38.7271 50.8101 39.0776 51.0601 39.4678 51.2309C39.858 51.4017 40.2794 51.4896 40.7053 51.489H52.4203C54.0043 51.489 55.3903 50.191 55.5113 48.618L56.1053 40.368C56.2373 38.542 54.8513 37.057 53.0143 37.057H38.8133M50.2863 57C50.651 57 51.0007 56.8551 51.2586 56.5973C51.5165 56.3394 51.6613 55.9897 51.6613 55.625C51.6613 55.2603 51.5165 54.9106 51.2586 54.6527C51.0007 54.3949 50.651 54.25 50.2863 54.25C49.9217 54.25 49.5719 54.3949 49.3141 54.6527C49.0562 54.9106 48.9113 55.2603 48.9113 55.625C48.9113 55.9897 49.0562 56.3394 49.3141 56.5973C49.5719 56.8551 49.9217 57 50.2863 57ZM41.4863 57C41.851 57 42.2007 56.8551 42.4586 56.5973C42.7165 56.3394 42.8613 55.9897 42.8613 55.625C42.8613 55.2603 42.7165 54.9106 42.4586 54.6527C42.2007 54.3949 41.851 54.25 41.4863 54.25C41.1217 54.25 40.7719 54.3949 40.5141 54.6527C40.2562 54.9106 40.1113 55.2603 40.1113 55.625C40.1113 55.9897 40.2562 56.3394 40.5141 56.5973C40.7719 56.8551 41.1217 57 41.4863 57ZM42.3113 41.6H55.5113H42.3113Z" fill="white"/>
<path d="M34.6113 35H36.5253C37.7133 35 38.6483 36.023 38.5493 37.2L37.6363 48.156C37.6007 48.5804 37.6536 49.0077 37.7917 49.4106C37.9298 49.8135 38.1501 50.1834 38.4386 50.4967C38.7271 50.8101 39.0776 51.0601 39.4678 51.2309C39.858 51.4017 40.2794 51.4896 40.7053 51.489H52.4203C54.0043 51.489 55.3903 50.191 55.5113 48.618L56.1053 40.368C56.2373 38.542 54.8513 37.057 53.0143 37.057H38.8133M42.3113 41.6H55.5113M50.2863 57C50.651 57 51.0007 56.8551 51.2586 56.5973C51.5165 56.3394 51.6613 55.9897 51.6613 55.625C51.6613 55.2603 51.5165 54.9106 51.2586 54.6527C51.0007 54.3949 50.651 54.25 50.2863 54.25C49.9217 54.25 49.5719 54.3949 49.3141 54.6527C49.0562 54.9106 48.9113 55.2603 48.9113 55.625C48.9113 55.9897 49.0562 56.3394 49.3141 56.5973C49.5719 56.8551 49.9217 57 50.2863 57ZM41.4863 57C41.851 57 42.2007 56.8551 42.4586 56.5973C42.7165 56.3394 42.8613 55.9897 42.8613 55.625C42.8613 55.2603 42.7165 54.9106 42.4586 54.6527C42.2007 54.3949 41.851 54.25 41.4863 54.25C41.1217 54.25 40.7719 54.3949 40.5141 54.6527C40.2562 54.9106 40.1113 55.2603 40.1113 55.625C40.1113 55.9897 40.2562 56.3394 40.5141 56.5973C40.7719 56.8551 41.1217 57 41.4863 57Z" stroke="#F9F3F3" stroke-width="1.8" stroke-miterlimit="10" stroke-linecap="round" stroke-linejoin="round"/>
</g>
<defs>
<filter id="filter0_d_2085_14207" x="0.0113299" y="0.400002" width="96" height="96" filterUnits="userSpaceOnUse" color-interpolation-filters="sRGB">
<feFlood flood-opacity="0" result="BackgroundImageFix"/>
<feColorMatrix in="SourceAlpha" type="matrix" values="0 0 0 0 0 0 0 0 0 0 0 0 0 0 0 0 0 0 127 0" result="hardAlpha"/>
<feOffset dx="2.4" dy="2.4"/>
<feGaussianBlur stdDeviation="9"/>
<feColorMatrix type="matrix" values="0 0 0 0 0 0 0 0 0 0 0 0 0 0 0 0 0 0 0.0691236 0"/>
<feBlend mode="normal" in2="BackgroundImageFix" result="effect1_dropShadow_2085_14207"/>
<feBlend mode="normal" in="SourceGraphic" in2="effect1_dropShadow_2085_14207" result="shape"/>
</filter>
</defs>
</svg>
