<svg width="22" height="22" viewBox="0 0 22 22" fill="none" xmlns="http://www.w3.org/2000/svg">
<path d="M10.6443 0.0527344C16.6083 0.0527344 21.1233 4.94257 21.1233 10.537C21.1233 17.0252 15.8313 21.0527 10.6233 21.0527C8.90129 21.0527 6.99029 20.59 5.45729 19.6857C4.92179 19.3597 4.47029 19.1178 3.89279 19.3071L1.77179 19.9381C1.23629 20.1063 0.753291 19.6857 0.910791 19.1178L1.61429 16.7623C1.72979 16.4363 1.70879 16.0893 1.54079 15.8159C0.637791 14.1544 0.123291 12.3352 0.123291 10.5685C0.123291 5.03721 4.54379 0.0527344 10.6443 0.0527344ZM15.4428 9.233C14.6973 9.233 14.0988 9.8324 14.0988 10.579C14.0988 11.3151 14.6973 11.925 15.4428 11.925C16.1883 11.925 16.7868 11.3151 16.7868 10.579C16.7868 9.8324 16.1883 9.233 15.4428 9.233ZM10.6023 9.233C9.86729 9.22249 9.25829 9.8324 9.25829 10.5685C9.25829 11.3151 9.85679 11.9145 10.6023 11.925C11.3478 11.925 11.9463 11.3151 11.9463 10.579C11.9463 9.8324 11.3478 9.233 10.6023 9.233ZM5.76179 9.233C5.01629 9.233 4.41779 9.8324 4.41779 10.579C4.41779 11.3151 5.02679 11.925 5.76179 11.925C6.50729 11.9145 7.10579 11.3151 7.10579 10.579C7.10579 9.8324 6.50729 9.233 5.76179 9.233Z" fill="white"/>
</svg>
