<svg width="25" height="25" viewBox="0 0 25 25" fill="none" xmlns="http://www.w3.org/2000/svg">
<path d="M12.7259 0.847656C6.10189 0.847656 0.725891 6.22366 0.725891 12.8477C0.725891 19.4717 6.10189 24.8477 12.7259 24.8477C19.3499 24.8477 24.7259 19.4717 24.7259 12.8477C24.7259 6.22366 19.3499 0.847656 12.7259 0.847656ZM9.47389 17.9957L5.16589 13.6877C4.69789 13.2197 4.69789 12.4637 5.16589 11.9957C5.63389 11.5277 6.38989 11.5277 6.85789 11.9957L10.3259 15.4517L18.5819 7.19566C19.0499 6.72766 19.8059 6.72766 20.2739 7.19566C20.7419 7.66366 20.7419 8.41966 20.2739 8.88766L11.1659 17.9957C10.7099 18.4637 9.94189 18.4637 9.47389 17.9957Z" fill="#FF5722"/>
</svg>
