<svg width="23" height="24" viewBox="0 0 23 24" fill="none" xmlns="http://www.w3.org/2000/svg">
<path d="M11.4525 23.0466C5.32161 23.0466 0.351562 18.0765 0.351562 11.9456C0.351562 5.81477 5.32161 0.844727 11.4525 0.844727C17.5833 0.844727 22.5534 5.81477 22.5534 11.9456C22.5534 18.0765 17.5833 23.0466 11.4525 23.0466ZM11.4525 20.8264C16.3572 20.8264 20.3332 16.8504 20.3332 11.9456C20.3332 7.04095 16.3572 3.06491 11.4525 3.06491C6.54778 3.06491 2.57175 7.04095 2.57175 11.9456C2.57175 16.8504 6.54778 20.8264 11.4525 20.8264ZM12.5626 11.9456H17.0029V14.1658H10.3424V6.39519H12.5626V11.9456Z" fill="#FF5722"/>
</svg>
