<svg width="24" height="24" viewBox="0 0 24 24" fill="none" xmlns="http://www.w3.org/2000/svg">
<path d="M1 8.34252C1 4.28736 4.28736 1 8.34253 1H17.2977C17.8266 1 18.2554 1.42879 18.2554 1.95772C18.2554 2.48666 17.8266 2.91544 17.2977 2.91544H8.34253C5.34523 2.91544 2.91544 5.34523 2.91544 8.34252V17.4177C2.91544 17.9467 2.48666 18.3754 1.95772 18.3754C1.42879 18.3754 1 17.9467 1 17.4177V8.34252Z" fill="#979797"/>
<path d="M20.3492 5.5246C16.2107 5.06206 11.9671 5.06206 7.82852 5.5246C6.64953 5.65637 5.70211 6.58421 5.56315 7.77233C5.07231 11.969 5.07231 16.2087 5.56315 20.4054C5.70211 21.5935 6.64953 22.5213 7.82852 22.6531C11.9671 23.1156 16.2107 23.1156 20.3492 22.6531C21.5282 22.5213 22.4756 21.5935 22.6146 20.4054C23.1054 16.2087 23.1054 11.969 22.6146 7.77233C22.4756 6.58421 21.5282 5.65637 20.3492 5.5246Z" fill="#979797"/>
</svg>
