<svg width="29" height="29" viewBox="0 0 29 29" fill="none" xmlns="http://www.w3.org/2000/svg">
<path fill-rule="evenodd" clip-rule="evenodd" d="M18.6907 2.39987L12.2973 6.21991L19.7989 7.23948L25.9673 3.39173L18.6907 2.39987ZM20.1496 13.768C24.2373 13.768 27.5515 17.0816 27.5515 21.1699C27.5515 25.2575 24.2373 28.5711 20.1496 28.5711C16.062 28.5711 12.7484 25.2575 12.7484 21.1699C12.7484 17.0816 16.062 13.768 20.1496 13.768ZM18.8685 18.5849C18.8685 17.9776 19.3611 17.485 19.9684 17.485C20.5763 17.485 21.0689 17.9776 21.0689 18.5849V21.5212L22.7207 22.0426C23.2998 22.2254 23.6206 22.8433 23.4383 23.4223C23.2554 24.0014 22.6376 24.3222 22.0586 24.1399L19.6786 23.388C19.2115 23.2605 18.8685 22.8339 18.8685 22.3268V18.5849ZM11.4163 7.1813L11.4113 15.0336L8.56039 13.092L5.70893 14.7028L6.04694 6.45153L1.14083 5.78494V23.1275L11.0567 24.4092C11.1963 24.8026 11.3598 25.1844 11.547 25.5523L0.58173 24.1344C0.295254 24.1227 0.0664062 23.8861 0.0664062 23.5974V5.17153C0.0813673 4.94712 0.171133 4.78975 0.383358 4.68336L10.1773 0.239384C10.2648 0.199488 10.3729 0.183418 10.4687 0.197271L27.5454 2.5262C27.8274 2.5589 28.0208 2.79051 28.0208 3.07976V3.08087L28.0491 15.7573C27.7321 15.2885 27.1863 14.633 26.9447 14.2185V4.04669L20.5275 8.19865V11.5128C20.1693 11.4995 19.8106 11.5062 19.4531 11.5327V8.27345L11.4163 7.1813ZM6.89916 5.48682L13.1146 1.63907L10.4782 1.27945L2.5178 4.89115L6.89916 5.48682Z" fill="#B0A9A7"/>
</svg>
