<svg width="171" height="199" viewBox="0 0 171 199" fill="none" xmlns="http://www.w3.org/2000/svg">
<path d="M169.99 193.027C167.148 195.963 157.835 199 151.916 199C145.998 199 143.055 195.971 140.212 193.035C137.471 190.209 134.886 187.537 129.684 187.537C124.482 187.537 121.889 190.208 119.156 193.027C116.305 195.963 113.362 199 107.451 199C101.541 199 98.5896 195.971 95.7473 193.035C93.0062 190.209 90.4208 187.537 85.2189 187.537C80.0171 187.537 77.424 190.208 74.6907 193.027C71.8483 195.963 68.897 199 62.9865 199C57.076 199 54.1324 195.963 51.2823 193.027C48.5412 190.208 45.9559 187.537 40.754 187.537C35.5522 187.537 32.959 190.208 30.2257 193.027C27.3834 195.963 24.432 199 18.5215 199C12.6111 199 3.29757 195.963 0.455236 193.027C-2.17684 190.325 7.46372 78.4232 7.46372 78.4232C7.46372 35.469 42.2803 0.660156 85.2267 0.660156C106.704 0.660156 126.149 9.36625 140.212 23.4377C154.284 37.5092 162.99 56.9461 162.99 78.431C162.99 78.431 172.63 190.333 169.998 193.035L169.99 193.027Z" fill="#D9D5D3"/>
<path d="M71.1083 122.67C70.5883 122.59 70.1283 123.04 70.2083 123.56C71.7483 133.02 77.7783 138.32 84.9983 138.32C92.2183 138.32 98.2483 133.02 99.7883 123.56C99.8683 123.04 99.4083 122.59 98.8883 122.67C96.4483 123.05 90.2183 123.92 84.9983 123.92C79.7783 123.92 73.5483 123.05 71.1083 122.67Z" fill="#FAFAFA"/>
<path d="M61.1486 108.87C66.7211 108.87 71.2386 104.353 71.2386 98.7804C71.2386 93.2079 66.7211 88.6904 61.1486 88.6904C55.576 88.6904 51.0586 93.2079 51.0586 98.7804C51.0586 104.353 55.576 108.87 61.1486 108.87Z" fill="#FAFAFA"/>
<path d="M108.852 108.87C114.424 108.87 118.942 104.353 118.942 98.7804C118.942 93.2079 114.424 88.6904 108.852 88.6904C103.279 88.6904 98.7617 93.2079 98.7617 98.7804C98.7617 104.353 103.279 108.87 108.852 108.87Z" fill="#FAFAFA"/>
</svg>
