<svg width="26" height="25" viewBox="0 0 26 25" fill="none" xmlns="http://www.w3.org/2000/svg">
<path d="M12.655 3.58647L13.0624 4.16104L13.4704 3.58693C14.6787 1.88693 16.6074 0.790527 18.7501 0.790527C22.3802 0.790527 25.3719 3.91058 25.3719 7.82761C25.3719 9.38052 25.1365 10.8142 24.7279 12.1436L24.7269 12.1468C23.7479 15.408 21.745 18.0273 19.5947 19.9725C17.4415 21.9205 15.1661 23.1692 13.6885 23.6985L13.6885 23.6984L13.6829 23.7005C13.5381 23.7543 13.3133 23.7905 13.0629 23.7905C12.8125 23.7905 12.5877 23.7543 12.4429 23.7005L12.4429 23.7004L12.4373 23.6985C10.9597 23.1692 8.68433 21.9205 6.53111 19.9725C4.38085 18.0273 2.37789 15.408 1.39886 12.1468L1.39887 12.1468L1.39791 12.1436C0.989305 10.8142 0.753906 9.38052 0.753906 7.82761C0.753906 3.9107 3.74543 0.790714 7.37538 0.790527C8.39786 0.791937 9.40706 1.04412 10.3232 1.52846C11.2395 2.01292 12.0385 2.71688 12.655 3.58647Z" stroke="black"/>
</svg>
