<svg width="27" height="24" viewBox="0 0 27 24" fill="none" xmlns="http://www.w3.org/2000/svg">
<path d="M13.1785 3.29594L13.5858 3.87051L13.9939 3.2964C15.2021 1.5964 17.1309 0.5 19.2735 0.5C22.9036 0.5 25.8953 3.62006 25.8953 7.53708C25.8953 9.08999 25.6599 10.5237 25.2513 11.8531L25.2504 11.8562C24.2713 15.1175 22.2684 17.7367 20.1181 19.682C17.9649 21.63 15.6896 22.8787 14.2119 23.4079L14.2119 23.4079L14.2064 23.41C14.0615 23.4638 13.8367 23.5 13.5863 23.5C13.336 23.5 13.1112 23.4638 12.9663 23.41L12.9663 23.4099L12.9608 23.4079C11.4831 22.8787 9.20777 21.63 7.05455 19.682C4.90428 17.7367 2.90132 15.1175 1.9223 11.8562L1.92231 11.8562L1.92135 11.8531C1.51274 10.5237 1.27734 9.08999 1.27734 7.53708C1.27734 3.62017 4.26887 0.500187 7.89882 0.5C8.92129 0.50141 9.9305 0.753593 10.8466 1.23793C11.763 1.72239 12.5619 2.42636 13.1785 3.29594Z" fill="white" stroke="white"/>
</svg>
