<svg width="27" height="25" viewBox="0 0 27 25" fill="none" xmlns="http://www.w3.org/2000/svg">
<path d="M13.1121 3.90043L13.5194 4.475L13.9275 3.9009C15.1357 2.20089 17.0645 1.10449 19.2071 1.10449C22.8372 1.10449 25.8289 4.22455 25.8289 8.14157C25.8289 9.69449 25.5935 11.1282 25.1849 12.4576L25.184 12.4607C24.2049 15.722 22.202 18.3412 20.0517 20.2865C17.8985 22.2345 15.6232 23.4832 14.1455 24.0124L14.1455 24.0124L14.14 24.0144C13.9951 24.0683 13.7703 24.1045 13.5199 24.1045C13.2696 24.1045 13.0448 24.0683 12.8999 24.0144L12.8999 24.0144L12.8944 24.0124C11.4167 23.4832 9.14136 22.2345 6.98815 20.2865C4.83788 18.3412 2.83492 15.722 1.85589 12.4607L1.8559 12.4607L1.85494 12.4576C1.44634 11.1282 1.21094 9.69449 1.21094 8.14157C1.21094 4.22467 4.20247 1.10468 7.83241 1.10449C8.85489 1.1059 9.86409 1.35809 10.7802 1.84242C11.6966 2.32689 12.4955 3.03085 13.1121 3.90043Z" stroke="#9D9D9D"/>
</svg>
