<svg width="27" height="25" viewBox="0 0 27 25" fill="none" xmlns="http://www.w3.org/2000/svg">
<path d="M19.2071 0.604492C16.8887 0.604492 14.8136 1.79101 13.5199 3.61123C12.8592 2.6793 12.0011 1.92232 11.0139 1.40039C10.0267 0.878467 8.93747 0.605956 7.83274 0.604492C3.90038 0.604492 0.710938 3.97528 0.710938 8.14157C0.710938 9.74607 0.954308 11.2292 1.37701 12.6045C3.40083 19.3461 9.6388 23.3775 12.7258 24.4831C13.1613 24.6449 13.8786 24.6449 14.3141 24.4831C17.4011 23.3775 23.639 19.3461 25.6629 12.6045C26.0856 11.2292 26.3289 9.74607 26.3289 8.14157C26.3289 3.97528 23.1395 0.604492 19.2071 0.604492Z" fill="#FF5722"/>
</svg>
