<svg width="26" height="24" viewBox="0 0 26 24" fill="none" xmlns="http://www.w3.org/2000/svg">
<path d="M12.4011 3.29594L12.8085 3.87051L13.2165 3.2964C14.4248 1.5964 16.3535 0.5 18.4962 0.5C22.1263 0.5 25.118 3.62006 25.118 7.53708C25.118 9.08999 24.8826 10.5237 24.474 11.8531L24.473 11.8562C23.494 15.1175 21.491 17.7367 19.3408 19.682C17.1876 21.63 14.9122 22.8787 13.4346 23.4079L13.4345 23.4079L13.429 23.41C13.2842 23.4638 13.0593 23.5 12.809 23.5C12.5586 23.5 12.3338 23.4638 12.189 23.41L12.189 23.4099L12.1834 23.4079C10.7057 22.8787 8.43042 21.63 6.27721 19.682C4.12694 17.7367 2.12398 15.1175 1.14495 11.8562L1.14496 11.8562L1.144 11.8531C0.735399 10.5237 0.5 9.08999 0.5 7.53708C0.5 3.62017 3.49153 0.500187 7.12147 0.5C8.14395 0.50141 9.15315 0.753593 10.0693 1.23793C10.9856 1.72239 11.7846 2.42636 12.4011 3.29594Z" stroke="white"/>
</svg>
