<svg width="252" height="282" viewBox="0 0 252 282" fill="none" xmlns="http://www.w3.org/2000/svg">
<path d="M77.8771 181.544C70.7371 185.718 60.9608 185.608 53.1617 183.082C34.3231 177.04 19.0545 158.751 14.1663 136.507C7.19111 104.432 21.6359 62.965 37.234 42.973C56.0177 18.9167 82.271 14.5778 99.8463 24.8484C110.556 31.1096 117.092 43.0279 116.159 54.5068L115.609 54.4519C116.543 43.1927 110.062 31.4391 99.5717 25.2877C82.1611 15.0721 56.2374 19.4659 37.6734 43.2476C22.0203 63.2945 7.74034 104.597 14.6607 136.342C19.4939 158.421 34.6526 176.546 53.2716 182.478C60.851 184.894 70.3527 185.114 77.3279 181.105C73.9227 178.523 71.0117 174.733 70.9568 170.23C70.9019 164.737 76.9983 159.465 81.9963 161.936C86.3902 164.078 88.0379 170.669 83.0948 176.93C81.7217 178.633 80.129 180.061 78.3165 181.159C97.8691 194.725 126.814 176.216 119.729 150.897L120.278 150.732C127.528 176.546 97.8691 195.824 77.8771 181.544ZM71.561 170.285C71.6159 174.679 74.5268 178.413 77.8771 180.885C79.6896 179.786 81.3373 178.358 82.7104 176.656C87.4337 170.724 85.8959 164.518 81.8316 162.486C77.218 160.234 71.506 165.177 71.561 170.285Z" fill="#FF5722"/>
<path d="M148.508 76.1478L144.992 81.5852L143.51 83.892L133.019 100.149C130.273 104.433 124.891 106.246 120.112 104.488C102.043 97.8974 108.304 100.204 106.931 99.7098L83.918 91.3615L84.1377 78.8391L121.156 86.9128L124.396 81.1458L124.561 80.8712L125.824 78.5644L127.637 75.3789L140.489 75.8183L148.508 76.1478Z" fill="#FFC5B2"/>
<path d="M144.996 81.583L133.023 100.147C130.276 104.431 124.894 106.243 120.116 104.486L116.82 103.278C118.248 102.838 123.246 102.014 129.398 98.2247C131.21 97.0713 133.023 95.6983 133.737 93.6661C134.725 90.7003 132.913 87.5147 130.606 85.4826C128.739 83.78 126.487 82.5167 124.619 80.9239L127.695 75.4316L140.547 75.871C142.085 77.7384 143.623 79.6058 144.996 81.583Z" fill="#FF988B"/>
<path d="M152.134 58.627L141.643 85.9786L139.666 85.0999L131.318 81.3102L123.738 77.9049L128.956 65.8219C131.043 62.0871 134.888 59.7254 139.117 59.4508L152.134 58.627Z" fill="#FFC727"/>
<path d="M139.668 85.0978L131.375 81.3081L135.384 70.0488L139.668 85.0978Z" fill="black"/>
<path d="M107.868 57.5285L121.598 129.313C123.136 137.277 117.919 144.966 109.9 146.504L74.749 153.205C66.7851 154.742 59.0959 149.525 57.5581 141.506L43.8273 69.7214C42.2895 61.7576 47.5071 54.0134 55.5259 52.5305L90.6767 45.8299C98.6405 44.347 106.385 49.5647 107.868 57.5285Z" fill="#94A1A9"/>
<path d="M57.3917 141.615L43.661 69.831C42.1231 61.7573 47.3957 53.9033 55.5244 52.3655L90.6751 45.6649C98.7488 44.127 106.548 49.3996 108.141 57.5283L121.871 129.313C123.409 137.386 118.137 145.185 110.008 146.778L74.8573 153.479C66.7287 155.017 58.9296 149.689 57.3917 141.615ZM93.4762 45.8296C92.5425 45.8296 91.6637 45.9395 90.73 46.1043L55.5793 52.8049C47.7253 54.2878 42.5625 61.9221 44.0454 69.7761L57.7762 141.561C59.2591 149.415 66.8934 154.577 74.7474 153.094L109.898 146.394C117.752 144.911 122.915 137.277 121.432 129.423L107.701 57.6381C106.328 50.4981 100.122 45.8296 93.4762 45.8296Z" fill="#37474F"/>
<path d="M103.416 58.4067L117.146 130.191C118.19 135.683 114.565 141.066 109.073 142.109L73.9219 148.81C68.4296 149.854 63.0471 146.229 62.0036 140.736L48.2728 68.9519C47.2293 63.4596 50.8542 58.0771 56.3465 57.0336L63.7611 55.6056C64.9145 55.3859 66.013 56.1548 66.2327 57.3082C66.4524 58.4616 67.5508 59.2305 68.7042 59.0108L80.6225 56.759C81.7759 56.5393 82.5448 55.4408 82.3251 54.2875C82.1054 53.1341 82.8744 52.0356 84.0277 51.8159L91.4424 50.3879C97.0445 49.2895 102.372 52.8595 103.416 58.4067Z" fill="white"/>
<path d="M61.8406 140.737L48.1098 68.9524C47.0113 63.3503 50.7461 57.8579 56.3483 56.8144L63.7629 55.3864C65.0261 55.1667 66.2344 55.9906 66.509 57.2538C66.7287 58.2973 67.7173 58.9564 68.7609 58.7916L80.6792 56.5398C81.7227 56.3201 82.3818 55.3315 82.217 54.2879C81.9973 53.0247 82.8212 51.8164 84.0844 51.5418L91.499 50.1138C97.1012 49.0153 102.539 52.6952 103.637 58.3523L117.368 130.137C118.466 135.739 114.731 141.231 109.129 142.275L73.9786 148.975C68.4313 150.074 62.939 146.449 61.8406 140.737ZM63.8727 55.8258L56.4581 57.2538C51.0207 58.2973 47.5057 63.515 48.5492 68.8975L62.225 140.682C63.2686 146.119 68.4863 149.634 73.8687 148.591L109.02 141.89C114.402 140.847 117.972 135.629 116.928 130.247L103.198 58.4621C102.154 53.0796 96.9364 49.5096 91.554 50.5532L84.1393 51.9812C83.0958 52.2009 82.4367 53.1895 82.6015 54.233C82.8212 55.4963 81.9973 56.7046 80.7341 56.9792L68.8158 59.231C67.5526 59.4507 66.3443 58.6269 66.0696 57.3636C65.9049 56.3201 64.9163 55.6061 63.8727 55.8258Z" fill="#394084"/>
<path d="M102.209 75.6513L107.372 100.367C107.811 102.399 106.493 104.376 104.461 104.815L91.4991 107.507L88.1489 114.921C87.4898 116.349 85.6224 116.734 84.469 115.69L78.4275 110.198L65.4656 112.889C63.4335 113.328 61.4562 112.01 61.0169 109.978L55.8541 85.2628C55.4147 83.2306 56.7328 81.2534 58.765 80.814L97.7604 72.6305C99.7925 72.3009 101.77 73.6191 102.209 75.6513Z" fill="#19BA46"/>
<path d="M67.2785 94.5457L65.8505 93.1727C65.6309 93.2276 64.5873 93.4473 64.6422 93.4473L64.9718 95.04L63.6536 95.3146L62.4453 89.6027L64.9169 89.1083C66.3449 88.8337 67.5532 89.2731 67.8278 90.6462C67.9925 91.525 67.7179 92.239 67.0039 92.6783L68.6516 94.2711L67.2785 94.5457ZM65.0816 90.2068L63.9832 90.4265L64.4225 92.4037L65.521 92.184C66.3998 92.0193 66.6744 91.525 66.5096 90.9208C66.3449 90.2068 65.7956 90.042 65.0816 90.2068ZM73.8693 92.0742L74.089 93.1177L69.6402 94.0514L68.4319 88.3394L72.7709 87.4607L72.9906 88.5042L69.9698 89.1083L70.2444 90.3716L72.8807 89.8223L73.1004 90.8659L70.4641 91.4151L70.7387 92.7333L73.8693 92.0742ZM75.4621 88.0099L75.7916 89.5477L78.4279 88.9985L78.6476 90.042L76.0113 90.5913L76.4507 92.6783L75.1325 92.953L73.9242 87.241L78.2632 86.3622L78.4829 87.4057L75.4621 88.0099ZM84.5244 89.8223L84.7441 90.8659L80.2953 91.7996L79.087 86.0876L83.4259 85.2088L83.6456 86.2523L80.6249 86.8565L80.8995 88.1197L83.5358 87.5705L83.7555 88.614L81.1192 89.1633L81.3938 90.4814L84.5244 89.8223ZM89.4675 89.9322L88.0395 88.5591C87.8198 88.614 86.7762 88.8337 86.8312 88.8337L87.1607 90.4265L85.8425 90.7011L84.6342 84.9891L87.1058 84.4948C87.9845 84.33 88.8633 84.385 89.4675 84.9891C89.7421 85.2637 89.9069 85.5933 90.0167 86.0327C90.1815 86.9114 89.8519 87.6254 89.1929 88.0648L90.8405 89.6576L89.4675 89.9322ZM87.2705 85.5383L86.1721 85.758L86.6115 87.7353L87.7099 87.5156C88.5887 87.3508 88.8633 86.8565 88.6986 86.2523C88.5338 85.5933 87.9845 85.3736 87.2705 85.5383ZM97.651 86.9114L95.0147 87.4607L94.7401 88.7788L93.367 89.0534L94.7401 82.7922L96.0582 82.5176L99.793 87.6803L98.4199 87.955L97.651 86.9114ZM96.9919 86.0327L95.6188 84.0554L95.1795 86.4171L96.9919 86.0327ZM66.8941 100.038L67.2236 101.576L69.8599 101.027L70.0796 102.07L67.4433 102.619L67.8827 104.706L66.5645 104.981L65.3562 99.2691L69.6952 98.3903L69.9149 99.4339L66.8941 100.038ZM75.4072 103.114L73.9792 101.741C73.7595 101.796 72.7159 102.015 72.7709 102.015L73.1004 103.608L71.7822 103.883L70.5739 98.1707L73.0455 97.6764C74.4185 97.4017 75.6818 97.8411 75.9564 99.2142C76.1212 100.093 75.8465 100.807 75.1325 101.246L76.7802 102.839L75.4072 103.114ZM73.2102 98.7199L72.1118 98.9396L72.5512 100.917L73.6496 100.697C74.5284 100.532 74.803 100.038 74.6382 99.4339C74.5284 98.8846 74.089 98.5551 73.2102 98.7199ZM76.5605 96.9074L77.8787 96.6328L79.087 102.345L77.7689 102.619L76.5605 96.9074ZM84.6342 100.038L84.8539 101.082L80.4052 102.015L79.1968 96.3033L83.5358 95.4245L83.7555 96.468L80.7347 97.0722L81.0093 98.3354L83.6456 97.7862L83.8653 98.8297L81.229 99.379L81.5036 100.697L84.6342 100.038ZM89.9618 94.1063L91.1701 99.8183L90.0716 100.038L86.5016 97.182L87.2156 100.642L85.8975 100.917L84.6892 95.2048L85.7876 94.9851L89.3576 97.8411L88.6436 94.381L89.9618 94.1063ZM91.3349 93.7768L93.9162 93.2276C95.7287 92.8431 97.2665 93.612 97.651 95.4245C98.0355 97.182 96.937 98.5551 95.0696 98.9396L92.4882 99.4888L91.3349 93.7768ZM94.8499 97.896C96.0033 97.6763 96.6075 96.8525 96.3329 95.754C95.8386 93.3924 93.1473 94.6556 92.8727 94.6007L93.6416 98.1707L94.8499 97.896Z" fill="white"/>
<path d="M223.81 163.363L234.19 167.483L236.991 175.776L221.997 181.488C220.954 181.598 225.787 180.994 211.727 182.806C211.727 182.806 213.539 166.659 213.539 166.439C213.539 166.329 212.825 165.945 217.988 164.736C221.228 163.967 223.81 163.363 223.81 163.363Z" fill="#FFC5B2"/>
<path d="M217.988 164.627L215.571 182.202L211.727 182.697C211.727 182.697 213.539 166.549 213.539 166.33C213.539 166.165 212.825 165.835 217.988 164.627Z" fill="#231826"/>
<path d="M235.727 180.278C235.453 184.562 233.805 190.768 231.224 193.679C229.741 195.381 226.995 196.7 225.292 195.436C223.974 194.393 224.194 192.635 224.798 191.043C226.116 187.747 228.313 185.001 230.455 182.31L231.169 182.914C229.082 185.495 226.885 188.186 225.622 191.372C225.182 192.525 224.853 193.953 225.841 194.722C227.05 195.656 229.356 194.448 230.51 193.075C232.871 190.383 234.464 184.397 234.794 180.223L235.727 180.278Z" fill="#453447"/>
<path d="M232.326 183.465C231.722 186.101 229.47 188.518 226.943 188.847C224.197 189.232 222.11 186.98 222.714 184.783C223.099 183.355 224.527 182.586 225.625 182.147C226.998 181.652 229.14 181.268 229.799 179.95C229.964 179.565 230.019 179.181 229.854 178.851L230.678 178.467C230.953 179.016 230.898 179.73 230.623 180.334C229.744 182.037 227.438 182.476 225.955 182.97C225.241 183.245 223.922 183.849 223.593 185.003C223.154 186.541 224.691 188.188 226.833 187.914C228.701 187.639 230.788 185.826 231.447 183.245L232.326 183.465Z" fill="#453447"/>
<path d="M245.067 158.971L251.877 202.525C251.877 202.525 244.572 205.491 239.684 191.87C239.684 191.87 231.281 181.929 221.779 181.489C221.779 181.489 220.516 177.645 225.843 178.194C225.953 178.194 226.063 178.194 226.118 178.194C226.118 178.194 226.118 178.194 226.173 178.194C226.173 178.194 223.976 163.255 223.866 163.365C223.756 163.529 245.067 158.971 245.067 158.971Z" fill="#B25A3E"/>
<path d="M249.021 202.689C250.724 203.019 251.932 202.525 251.932 202.525L245.121 158.971C245.121 158.971 244.023 159.19 242.32 159.575L249.021 202.689Z" fill="#453447"/>
<path d="M225.843 178.138C225.952 178.138 226.062 178.138 226.117 178.138C226.117 178.138 226.117 178.138 226.172 178.138C226.172 178.138 240.342 179.401 239.683 191.813C239.683 191.813 231.28 181.872 221.778 181.433C221.833 181.488 220.515 177.643 225.843 178.138Z" fill="#FEE8A0"/>
<path d="M228.26 177.148L229.304 183.794C229.359 184.014 229.194 184.288 228.919 184.288C228.645 184.288 228.425 184.178 228.425 183.904L227.382 177.258C227.327 177.038 227.491 176.764 227.766 176.764C227.986 176.764 228.205 176.928 228.26 177.148ZM233.039 179.07L233.753 186.815C233.753 187.034 233.588 187.254 233.368 187.309C233.149 187.309 232.929 187.144 232.874 186.924L232.16 179.18C232.16 178.961 232.325 178.741 232.544 178.686C232.819 178.686 233.039 178.851 233.039 179.07ZM236.993 181.926L235.95 188.407C235.895 188.627 235.675 188.792 235.455 188.792C235.236 188.737 235.071 188.517 235.071 188.298L236.114 181.817C236.169 181.597 236.389 181.432 236.609 181.432C236.828 181.487 236.993 181.707 236.993 181.926ZM240.069 185.606L238.092 190.604C237.982 190.824 237.762 190.934 237.487 190.879C237.268 190.769 237.158 190.549 237.213 190.275L239.19 185.277C239.3 185.057 239.52 184.947 239.794 185.002C240.069 185.112 240.179 185.387 240.069 185.606Z" fill="#453447"/>
<path d="M137.471 124.914L130.167 185.934C128.464 199.939 141.426 211.308 155.102 207.793L218.758 189.614L216.011 155.891L166.855 174.18L172.458 113.436L137.471 124.914Z" fill="#FF5722"/>
<path d="M180.86 169.346L184.595 199.444L175.258 202.3L180.86 169.346Z" fill="black"/>
<path d="M149.829 123.543L145.875 178.576L164.878 148.149L156.585 118.49L149.829 123.543Z" fill="black"/>
<path d="M180.806 259.975L175.149 269.586L166.526 271.069L163.176 255.416L163.395 248.935L163.505 245.036C163.505 245.036 179.103 241.74 179.323 241.74C179.433 241.795 179.982 248.715 180.367 254.043C180.641 257.283 180.806 259.975 180.806 259.975Z" fill="#FFC5B2"/>
<path d="M180.53 253.986L163.559 248.879L163.668 244.979C163.668 244.979 179.267 241.684 179.486 241.684C179.596 241.739 180.145 248.714 180.53 253.986Z" fill="#231826"/>
<path d="M162.299 269.089C158.125 268.155 152.248 265.574 149.722 262.553C148.294 260.85 147.36 257.885 148.898 256.402C150.106 255.248 151.864 255.743 153.292 256.566C156.367 258.379 158.729 260.96 161.036 263.542L160.377 264.146C158.125 261.674 155.818 259.093 152.852 257.39C151.809 256.786 150.436 256.237 149.557 257.061C148.458 258.104 149.282 260.576 150.436 261.949C152.742 264.695 158.345 267.221 162.519 268.155L162.299 269.089Z" fill="#453447"/>
<path d="M159.662 265.246C158.179 264.641 156.916 263.598 156.092 262.225C154.609 259.808 155.049 257.337 156.532 256.073C158.399 254.481 161.255 255.14 161.969 258.82C162.244 260.248 162.299 262.445 163.507 263.268C163.836 263.488 164.276 263.598 164.605 263.488L164.825 264.367C164.221 264.532 163.562 264.367 162.958 263.982C161.365 262.884 161.365 260.467 161.09 258.929C160.486 256.019 158.509 255.524 157.136 256.678C155.982 257.611 155.653 259.589 156.916 261.621C157.63 262.829 158.784 263.763 160.047 264.257L159.662 265.246Z" fill="#453447"/>
<path d="M181.905 281.611H137.801C137.801 281.611 135.989 273.922 150.214 271.231C150.214 271.231 161.308 264.475 163.231 255.193C163.231 255.193 167.185 254.534 165.867 259.697C165.812 259.807 165.812 259.917 165.812 259.972C165.812 259.972 165.812 259.972 165.812 260.027C165.812 260.027 180.916 260.136 180.806 260.027C180.696 259.862 181.905 281.611 181.905 281.611Z" fill="#B25A3E"/>
<path d="M138.132 278.758C137.583 280.406 137.858 281.614 137.858 281.614H181.961C181.961 281.614 181.906 280.46 181.796 278.758H138.132Z" fill="#453447"/>
<path d="M165.923 259.698C165.868 259.808 165.868 259.918 165.868 259.973C165.868 259.973 165.868 259.973 165.868 260.028C165.868 260.028 162.408 273.813 150.27 271.287C150.27 271.287 161.364 264.531 163.286 255.249C163.286 255.139 167.241 254.48 165.923 259.698Z" fill="#FEE8A0"/>
<path d="M166.525 262.172H159.77C159.55 262.172 159.33 261.952 159.33 261.732C159.33 261.513 159.55 261.293 159.77 261.293H166.525C166.745 261.293 166.965 261.513 166.965 261.732C166.965 261.952 166.745 262.172 166.525 262.172ZM163.889 266.621L156.09 266.126C155.87 266.126 155.65 265.907 155.65 265.632C155.65 265.412 155.87 265.193 156.145 265.193L163.944 265.687C164.164 265.687 164.383 265.907 164.383 266.181C164.328 266.456 164.109 266.621 163.889 266.621ZM160.429 270.081L154.168 268.049C153.948 267.994 153.783 267.719 153.893 267.499C153.948 267.28 154.222 267.115 154.442 267.225L160.703 269.257C160.923 269.312 161.088 269.586 160.978 269.806C160.923 270.026 160.703 270.136 160.429 270.081ZM156.364 272.552L151.751 269.806C151.531 269.696 151.476 269.422 151.586 269.202C151.696 268.982 151.971 268.927 152.19 269.037L156.804 271.783C157.024 271.893 157.078 272.168 156.969 272.387C156.859 272.607 156.584 272.662 156.364 272.552Z" fill="#453447"/>
<path d="M189.924 248.928L178.5 183.075L189.1 121.012L153.949 123.538C153.73 123.868 146.37 169.069 145.931 184.393C145.436 200.54 148.897 229.759 150.489 248.928H189.924Z" fill="#FF5722"/>
<path d="M187.123 248.991L175.699 183.083C176.303 179.403 185.695 124.59 186.354 120.965L186.904 121.075L176.303 183.083L187.672 248.881L187.123 248.991Z" fill="white"/>
<path d="M190.035 123.432C187.728 129.308 135.606 127.496 135.551 124.86L134.892 73.7261C134.782 65.8172 140.879 59.2264 148.788 58.6772L169.988 57.2492C178.117 56.7 185.202 62.7964 185.861 70.98L186.135 74.1655L187.179 87.6217L190.035 123.432Z" fill="#FFC727"/>
<path d="M187.012 84.8767L169.602 107.011L180.092 69.4434L186.188 74.1118L187.012 84.8767Z" fill="black"/>
<path d="M180.366 153.31C176.466 150.125 174.379 144.687 175.258 139.744C176.137 134.801 179.926 130.353 184.705 128.76L184.869 129.254C180.256 130.792 176.631 135.076 175.752 139.799C174.928 144.578 176.851 149.795 180.64 152.871L180.366 153.31Z" fill="white"/>
<path d="M178.885 239.484H159.277V240.034H178.885V239.484Z" fill="white"/>
<path d="M209.584 166.768H209.035V184.123H209.584V166.768Z" fill="white"/>
<path d="M181.685 83.5618L169.602 106.959C168.229 109.595 165.537 111.298 162.571 111.353L127.695 112.122L129.618 98.1164L157.299 95.3153L167.24 72.7969L181.685 83.5618Z" fill="#FFC5B2"/>
<path d="M171.195 57.1934H174.545C183.608 57.1934 190.253 65.6515 188.166 74.4392L183.443 87.9503L163.066 79.7667L171.195 57.1934Z" fill="#FFC727"/>
<path d="M167.404 67.6328L155.376 93.227L135.219 97.4011L157.353 95.369L167.294 72.8505L167.404 67.6328Z" fill="black"/>
<path d="M129.673 98.1696L127.75 112.175C127.75 112.175 124.455 115.031 122.203 113.933C120.94 113.328 121.269 112.285 121.819 111.9C121.434 111.955 120.885 111.791 120.281 111.186C119.073 109.978 120.391 109.044 120.83 108.825C120.446 108.989 118.633 109.539 118.194 107.342C117.809 105.474 120.72 105.2 120.72 105.2C120.72 105.2 108.417 102.124 109.131 98.664C109.845 95.2587 121.983 100.586 122.258 100.696C122.148 100.531 120.171 98.3893 121.599 96.6318C123.027 94.7644 129.673 98.1696 129.673 98.1696Z" fill="#FFC5B2"/>
<path d="M161.581 58.7349C156.034 64.5568 151.64 64.5568 148.18 59.7785L148.235 56.6479L148.344 50.4416L148.454 43.5762L162.185 44.0156C162.185 44.0156 161.581 55.11 161.581 58.7349Z" fill="#FFC5B2"/>
<path d="M156.967 49.8381C154.276 54.0672 148.509 56.5937 148.289 56.6486L148.399 50.4423L149.827 49.179C149.772 49.179 159.658 45.4992 156.967 49.8381Z" fill="#FF988B"/>
<path d="M144.612 54.063C153.894 56.3149 162.187 44.0121 162.187 44.0121C162.187 44.0121 168.064 43.2981 166.691 37.4213C166.306 35.7187 165.702 35.0596 164.988 34.9498C163.34 34.6752 161.308 37.8058 161.308 37.8058C161.308 37.8058 160.21 19.6262 146.094 23.8004C141.646 25.1185 139.174 28.7435 138.131 33.0824C135.934 42.4742 139.339 52.7449 144.612 54.063Z" fill="#FFC5B2"/>
<path d="M131.922 28.7465C133.185 32.0968 135.492 33.1953 138.183 33.0854C143.62 32.9207 150.596 27.8677 153.287 26.8242C157.296 25.2314 158.065 32.5362 158.45 34.129C158.834 35.7217 161.306 37.8088 161.306 37.8088C161.306 37.8088 163.338 34.6233 164.985 34.9528L165.37 31.7673C165.37 31.7673 171.466 20.1236 165.26 17.1577C159.054 14.1919 153.946 19.1899 153.946 19.1899C153.946 19.1899 155.154 14.2468 152.408 12.5991C149.717 11.0613 146.092 16.993 145.927 17.2676C145.982 16.993 146.916 11.1162 141.698 9.30373C136.37 7.49127 128.132 18.6956 131.922 28.7465Z" fill="black"/>
<path d="M149.993 37.3141C150.6 37.3141 151.091 36.8223 151.091 36.2156C151.091 35.609 150.6 35.1172 149.993 35.1172C149.386 35.1172 148.895 35.609 148.895 36.2156C148.895 36.8223 149.386 37.3141 149.993 37.3141Z" fill="black"/>
<path d="M141.259 36.2731C141.865 36.2731 142.357 35.7813 142.357 35.1746C142.357 34.568 141.865 34.0762 141.259 34.0762C140.652 34.0762 140.16 34.568 140.16 35.1746C140.16 35.7813 140.652 36.2731 141.259 36.2731Z" fill="black"/>
<path d="M144.281 44.9495C143.952 44.7298 143.567 44.5101 143.238 44.2355C142.249 43.2469 142.524 42.3132 143.348 41.2147C143.403 41.1598 144.831 39.4023 145.325 36.766C145.38 36.5463 145.599 36.3815 145.819 36.4364C146.039 36.4913 146.204 36.711 146.149 36.9307C145.599 39.6769 144.226 41.3246 144.007 41.709C143.457 42.423 143.128 42.9723 143.842 43.6863C144.062 43.906 144.391 44.1257 144.721 44.2904C144.94 44.4003 144.995 44.6749 144.885 44.8397C144.721 45.0044 144.501 45.0593 144.281 44.9495Z" fill="#FF988B"/>
<path d="M143.019 48.0254C142.854 47.9155 142.799 47.6409 142.909 47.4761C143.019 47.3114 143.293 47.2564 143.458 47.3663C144.611 48.1901 146.259 47.8606 147.028 46.6523C147.138 46.4875 147.412 46.3777 147.577 46.5424C147.742 46.6523 147.852 46.9269 147.687 47.0917C146.698 48.6844 144.556 49.1238 143.019 48.0254Z" fill="#FF988B"/>
<path d="M1.59028 107.782C3.34782 111.956 6.42351 115.196 10.1034 117.283C18.5066 122.007 28.8871 119.92 34.8737 112.78C39.5421 107.287 40.9701 99.3234 37.9494 92.2932C33.6654 82.2423 22.0766 77.5739 12.0257 81.8579C1.97475 86.1419 -2.69372 97.7306 1.59028 107.782Z" fill="#DCEBFF"/>
<path d="M23.2852 99.4324L31.6884 115.745C32.8418 114.866 33.8853 113.877 34.819 112.779C35.7527 111.68 36.5765 110.472 37.2356 109.154L31.4687 100.915C29.8759 98.6635 26.965 97.8396 24.4385 98.9381L23.2852 99.4324Z" fill="#FF5722"/>
<path d="M15.8684 119.425C22.7887 120.853 30.1484 118.381 34.8718 112.779C34.3226 111.625 36.849 116.843 29.4893 101.739C28.3909 99.4325 25.6447 98.4439 23.338 99.4325L15.429 102.838C13.1772 103.771 12.0238 106.243 12.7378 108.605L15.8684 119.425Z" fill="#FF5722"/>
<path d="M16.0352 117.502L17.2984 119.644C18.5616 119.809 19.7699 119.809 20.9233 119.754L19.9896 118.93L16.3647 107.726L16.2548 107.396L16.0352 117.502Z" fill="black"/>
<path d="M10.103 117.284C12.9041 118.877 16.0347 119.701 19.2203 119.811L18.3964 119.097L16.1995 107.508L15.3207 102.895L13.673 103.609C10.4326 104.982 8.51027 108.442 9.11442 111.957L10.103 117.284Z" fill="#FF5722"/>
<path d="M10.5438 91.9648C10.5438 91.9648 10.5438 92.0198 10.5988 92.0198C10.434 92.7887 10.434 93.8322 10.2692 94.6012C10.1594 95.0405 10.0495 95.425 10.1045 95.8644C10.1594 96.3038 10.3241 96.7432 10.6537 96.9628C11.2578 97.4022 12.0817 97.0727 12.7957 97.2924C13.2351 97.4022 13.5646 97.7318 13.8941 98.0064C14.2237 98.3359 14.4983 98.6655 14.8828 98.8852C15.2672 99.1598 15.7066 99.2696 16.146 99.1598C16.5854 99.0499 16.9149 98.5556 16.7501 98.1712L10.5438 91.9648Z" fill="black"/>
<path d="M14.4961 96.3566L17.1873 102.014C17.1873 102.014 20.6475 104.101 21.9107 103.112C22.8993 102.343 22.1853 99.8717 22.1853 99.8717L19.8236 94.2695L14.4961 96.3566Z" fill="#FFC5B2"/>
<path d="M15.9258 96.9082C15.9258 96.9082 16.0906 97.073 17.2439 98.1165C18.5621 99.3248 21.8575 99.1051 21.8575 99.1051L20.9787 97.0181C19.2761 97.0181 16.9693 96.9631 16.9144 96.9631C16.8046 97.0181 15.9807 96.9082 15.9258 96.9082Z" fill="#FF988B"/>
<path d="M22.0215 91.525C22.9003 94.2162 23.2298 96.7976 21.9117 97.7862C18.4515 100.313 14.497 96.4131 14.497 96.4131C14.497 96.4131 12.5198 97.237 11.4213 95.754C10.927 95.095 11.0918 94.4359 11.4213 93.9416C11.8058 93.3374 12.4649 92.953 12.4649 92.953C12.4649 92.953 13.7281 88.5042 13.9478 88.1747C14.1675 87.8451 18.836 85.5384 19.6598 86.3622C19.8795 86.6368 20.4837 87.6804 21.0878 89.0534C21.4174 89.8224 21.7469 90.6462 22.0215 91.525Z" fill="#FFC5B2"/>
<path d="M11.4753 93.8836C9.71778 93.9386 9.93747 91.467 9.93747 91.467C9.93747 91.467 9.16855 90.9178 8.72916 90.094C8.28978 89.325 8.94886 88.3913 8.94886 88.3913C8.94886 88.3913 9.11363 86.7986 10.0473 85.755C10.981 84.7664 12.4639 85.3706 12.4639 85.3706C12.4639 85.3706 15.1552 81.9653 18.5604 81.8555C21.9656 81.7456 20.0982 86.2493 20.1532 86.3043C20.2081 86.3592 20.5926 85.6452 21.7459 86.2493C22.8993 86.8535 21.691 89.0504 21.691 89.0504C23.0092 89.9841 21.9656 91.522 21.9656 91.467C21.9656 91.4121 21.0869 89.1053 21.0319 88.9955C21.0319 88.9955 19.2744 88.9955 18.6702 88.8856C18.0661 88.7758 18.8899 87.7872 18.121 87.4027C17.3521 87.0183 15.3199 88.0618 14.6059 89.2701C13.8919 90.4784 15.1552 91.0826 14.7158 92.1261C14.2764 93.1147 12.4639 92.7852 12.4639 92.7852L11.4753 93.8836Z" fill="black"/>
<path d="M17.5967 92.2562C17.8478 92.149 17.9644 91.8585 17.8572 91.6075C17.75 91.3564 17.4596 91.2398 17.2085 91.3469C16.9574 91.4541 16.8408 91.7446 16.948 91.9956C17.0552 92.2467 17.3456 92.3633 17.5967 92.2562Z" fill="black"/>
<path d="M20.6201 90.6097C20.8712 90.5025 20.9878 90.2121 20.8806 89.961C20.7735 89.7099 20.483 89.5933 20.232 89.7005C19.9809 89.8076 19.8642 90.0981 19.9714 90.3491C20.0786 90.6002 20.369 90.7169 20.6201 90.6097Z" fill="black"/>
<path d="M20.3706 94.2726C20.4804 94.1628 20.6452 93.998 20.755 93.8333C21.0846 93.284 20.81 92.9545 20.3706 92.57C20.3157 92.5151 19.5467 91.9659 19.0524 90.9223C18.9975 90.8125 18.8877 90.8125 18.7778 90.8125C18.668 90.8674 18.668 90.9773 18.668 91.0871C19.2172 92.1856 19.9861 92.7348 20.096 92.8996C20.4255 93.1742 20.5903 93.339 20.3706 93.6685C20.3157 93.7783 20.2058 93.8882 20.041 93.998C19.9861 94.053 19.9861 94.1628 20.041 94.2726C20.1509 94.3825 20.2607 94.3276 20.3706 94.2726ZM21.3043 95.5359C21.3592 95.426 21.3592 95.3162 21.2494 95.2613C21.1395 95.2063 21.0297 95.2063 20.9747 95.3162C20.6452 95.8105 19.9312 95.9203 19.4369 95.5359C19.382 95.4809 19.2172 95.481 19.1623 95.5908C19.1074 95.6457 19.1074 95.8105 19.2172 95.8654C19.8763 96.3597 20.81 96.2499 21.3043 95.5359Z" fill="#FF988B"/>
<path d="M31.7969 106.572L34.8176 112.779C35.0373 112.504 35.257 112.229 35.4767 111.955C34.7078 110.801 37.454 114.866 31.7969 106.572Z" fill="black"/>
<path d="M76.1771 19.7958C77.2756 31.2747 68.8724 41.4904 57.3385 42.5889C55.0317 42.8086 52.725 42.6438 50.583 42.1495C50.3633 42.0946 50.0887 42.0396 49.869 41.9847C49.3197 41.82 48.7705 41.6552 48.2213 41.4904C46.1342 40.7215 44.2119 39.678 42.4544 38.3049C38.1154 34.8997 35.0947 29.7369 34.4905 23.8052C33.392 12.3263 41.8502 2.11057 53.3291 1.01211C64.9179 -0.141276 75.0787 8.26195 76.1771 19.7958Z" fill="#DCEBFF"/>
<path d="M71.1785 35.5045C69.2562 37.7014 66.9494 39.404 64.5877 40.5574L64.0385 38.3605L63.2695 35.1749L70.9588 34.4609L71.1785 35.5045Z" fill="#FFC5B2"/>
<path d="M71.6728 34.9018C71.1785 35.5059 70.5194 36.2749 69.8604 36.879C69.7505 36.879 64.0934 38.362 64.0385 38.362C62.1162 38.8563 60.6333 39.2407 60.5234 39.2407L62.281 25.3452C63.1048 25.455 68.3774 23.6975 69.6956 28.2561L71.6728 34.9018Z" fill="#FFC727"/>
<path d="M70.1907 36.5483C70.0809 36.6581 69.971 36.768 69.8612 36.8778C68.4332 37.2623 66.2912 37.8115 65.7969 37.9214L66.1264 34.9006L66.8404 28.4746C67.1699 29.2985 65.6321 25.5088 70.1907 36.5483Z" fill="#211624"/>
<path d="M48.989 37.975L48.4397 40.5014L48.22 41.3802C46.133 40.6113 44.2107 39.5677 42.4531 38.1947L42.5081 37.975L43.222 35.6133L48.989 37.975Z" fill="#FFC5B2"/>
<path d="M68.4332 38.1404C65.3025 40.6119 61.5128 42.2047 57.3936 42.5891C55.0868 42.8088 52.7801 42.6441 50.6381 42.1497C50.4184 42.0948 50.1438 42.0399 49.9241 41.985L50.0888 38.36C50.0888 38.36 49.5396 40.8865 49.4298 40.9414C49.3748 40.9414 49.0453 40.7767 48.4961 40.557C46.9033 39.8979 43.8276 38.5797 42.6193 38.0305C42.2898 37.9207 42.125 37.8108 42.125 37.8108L44.8712 31.22C45.8048 28.5837 48.1665 26.7164 50.9676 26.4417L62.0621 25.3982C62.1719 25.3982 62.2268 25.3982 62.3367 25.3982C64.3688 25.3433 66.2362 26.6065 66.8953 28.4739C67.0052 28.8034 67.115 29.1879 67.115 29.5724L67.5544 33.9662C67.5544 33.9662 67.7192 34.2408 67.8839 34.7351C68.2684 35.7787 68.4881 36.987 68.4332 38.1404Z" fill="#FFC727"/>
<path d="M50.5299 35.5039L50.6398 42.0947C50.4201 42.0398 50.1455 41.9848 49.9258 41.9299L50.0905 38.305L50.5299 35.5039Z" fill="#211624"/>
<path d="M54.3711 26.1119C54.3711 26.1119 56.0737 28.913 58.6002 28.254C61.1266 27.5949 60.9069 26.057 60.9069 26.057L60.7422 24.1896V24.0798L60.4676 20.7295L55.0851 19.1367C55.0851 19.1367 55.14 19.2466 55.14 19.4663C55.14 19.5761 55.1949 19.6859 55.1949 19.7958C55.4696 21.3336 55.854 24.5192 54.3711 26.1119Z" fill="#FFC5B2"/>
<path d="M55.1406 19.1367C55.1406 19.1367 55.1955 19.2466 55.1955 19.4663C55.4152 19.5761 55.5251 19.6859 55.5251 19.6859C55.5251 19.6859 57.8318 23.8052 60.7977 24.0798L60.5231 20.7295L55.1406 19.1367Z" fill="#FF988B"/>
<path d="M55.1408 19.1364C55.1408 19.1364 55.1957 19.2462 55.3605 19.4659C56.1843 20.7841 59.4248 25.3976 62.9398 22.7064C65.0818 21.0587 64.4228 17.4338 63.7088 14.7425C63.544 14.1933 63.3792 13.699 63.2694 13.2047C63.2145 12.9301 63.1046 12.7104 62.9948 12.4907C62.83 12.1062 62.6652 11.7767 62.5554 11.3922C62.0611 9.52483 56.5138 10.1839 55.1408 11.557C54.4268 12.271 55.3055 15.4565 55.3055 15.4565C55.3055 15.4565 53.9874 13.8638 53.2734 15.841C52.5045 17.9281 55.1408 19.1364 55.1408 19.1364Z" fill="#FFC5B2"/>
<path d="M51.0777 14.1944C53.5347 14.1944 55.5264 12.2026 55.5264 9.74564C55.5264 7.28866 53.5347 5.29688 51.0777 5.29688C48.6207 5.29688 46.6289 7.28866 46.6289 9.74564C46.6289 12.2026 48.6207 14.1944 51.0777 14.1944Z" fill="#640915"/>
<path d="M53.2729 14.5236C51.8998 15.2376 50.0324 15.3475 48.3298 14.5785C46.6821 13.8096 45.5288 12.2718 45.1992 10.7888C45.8583 12.4915 47.0666 13.6998 48.4397 14.3588C49.8128 15.0179 51.5154 15.1278 53.2729 14.5236ZM56.3486 9.58054C56.2937 8.97639 56.2388 8.42715 56.074 7.87792C55.9641 7.32869 55.7444 6.77946 55.4698 6.28516C55.8543 6.72454 56.1289 7.27377 56.2937 7.823C56.5134 8.42715 56.5134 9.03131 56.3486 9.58054Z" fill="#640915"/>
<path d="M52.0669 17.0493C52.8358 19.5209 55.3622 20.4546 55.3622 20.4546V19.5209C55.2524 19.3012 55.1426 19.1913 55.1426 19.1913C55.1426 19.1913 52.5612 17.983 53.2752 16.0058C53.9892 14.0286 55.3073 15.6213 55.3073 15.6213C55.3073 15.6213 60.6349 15.4016 61.1292 11.5021C61.1292 11.5021 62.1727 11.9415 62.8867 12.8203C63.3261 13.3146 63.4359 14.1933 63.6556 14.8524C63.6556 14.8524 65.8526 8.70103 59.4815 8.26164C53.1653 7.76734 50.8586 13.2596 52.0669 17.0493Z" fill="#640915"/>
<path d="M59.2599 16.3929C59.5329 16.3929 59.7542 16.1716 59.7542 15.8986C59.7542 15.6256 59.5329 15.4043 59.2599 15.4043C58.9869 15.4043 58.7656 15.6256 58.7656 15.8986C58.7656 16.1716 58.9869 16.3929 59.2599 16.3929Z" fill="black"/>
<path d="M62.8849 15.7855C63.1579 15.7855 63.3792 15.5642 63.3792 15.2912C63.3792 15.0182 63.1579 14.7969 62.8849 14.7969C62.6119 14.7969 62.3906 15.0182 62.3906 15.2912C62.3906 15.5642 62.6119 15.7855 62.8849 15.7855Z" fill="black"/>
<path d="M61.3468 19.5774C61.2919 19.4675 61.2919 19.3577 61.4017 19.3028C61.5116 19.1929 61.6763 19.138 61.7862 19.0282C62.0608 18.6986 61.896 18.4789 61.6763 18.2043C61.6214 18.1494 60.9624 17.3805 60.6328 16.1722C60.6328 16.0623 60.6877 15.9525 60.7427 15.9525C60.8525 15.8975 60.9623 16.0074 60.9623 16.0623C61.237 17.1608 61.8411 17.7649 61.951 17.9297C62.3354 18.3691 62.5002 18.8085 62.0608 19.2479C61.951 19.4126 61.7862 19.5225 61.6214 19.5774C61.5116 19.6872 61.4017 19.6323 61.3468 19.5774Z" fill="#FF988B"/>
<path d="M58.8779 14.5246C58.823 14.5246 58.7681 14.5246 58.7132 14.5246C58.3287 14.5795 57.9442 14.7443 57.6696 15.0738C57.4499 15.2935 57.3401 15.6231 57.2852 15.9526C57.2852 16.0625 57.2852 16.1174 57.2852 16.2272C57.2852 16.2821 57.2852 16.3371 57.2852 16.3371C57.4499 17.106 58.1639 17.6552 58.9328 17.6003C59.7567 17.5454 60.4158 16.7765 60.3059 15.8977C60.3059 15.1288 59.6468 14.5795 58.8779 14.5246ZM58.9328 17.3806C58.2188 17.4355 57.5598 16.9412 57.5048 16.2272C57.4499 15.5132 57.9442 14.8541 58.6582 14.7992C59.3722 14.7443 60.0313 15.2386 60.0862 15.9526C60.1961 16.6666 59.6468 17.3257 58.9328 17.3806ZM63.821 14.1951C63.7112 14.0852 63.6013 13.9754 63.4365 13.9205C63.2168 13.8106 62.9422 13.7557 62.6676 13.8106C61.8438 13.8655 61.1847 14.6345 61.2945 15.5132C61.3495 16.3371 62.1184 16.9961 62.9972 16.8863C63.4365 16.8314 63.821 16.6117 64.0956 16.2821C64.3153 16.0075 64.4252 15.6231 64.3702 15.2386C64.2604 14.7992 64.0956 14.4148 63.821 14.1951ZM63.9309 15.8977C63.7661 16.2821 63.3816 16.5568 62.8873 16.6117C62.1733 16.6666 61.5142 16.1723 61.4593 15.4583C61.4044 14.7443 61.8987 14.0852 62.6127 14.0303C62.9422 13.9754 63.2169 14.0852 63.4915 14.25C63.7661 14.4697 63.9858 14.7992 64.0407 15.1837C64.0956 15.4583 64.0407 15.678 63.9309 15.8977Z" fill="white"/>
<path d="M57.3387 16.3914C57.3387 16.3914 56.0206 14.8536 54.8672 14.9634V14.7437C56.1304 14.6339 57.4486 16.2266 57.5035 16.2816L57.3387 16.3914Z" fill="white"/>
<path d="M60.1388 20.7318C60.0839 20.6769 60.0839 20.5121 60.1388 20.4572C60.1938 20.4023 60.3585 20.4023 60.4135 20.4572C60.7979 20.8966 61.5119 20.9515 61.9513 20.5121C62.0062 20.4572 62.1161 20.4572 62.2259 20.5121C62.2809 20.567 62.2809 20.6769 62.2259 20.7867C61.6767 21.3909 60.6881 21.336 60.1388 20.7318Z" fill="#FF988B"/>
<path d="M51.0775 3.97866C49.8692 3.92374 48.6609 4.14343 47.6174 4.74758C46.5738 5.35174 45.8049 6.34035 45.5852 7.54866C45.5303 6.50512 46.1894 5.29681 47.5075 4.52789C48.606 3.86881 49.9241 3.70404 51.0775 3.97866Z" fill="#640915"/>
<path d="M54.7033 5.78886C54.3738 5.56917 54.0992 5.34947 53.7696 5.12978C53.4401 4.91009 53.1655 4.6904 52.8359 4.4707C53.2204 4.52563 53.6049 4.6904 53.8795 4.91009C54.2639 5.12978 54.5386 5.4044 54.7033 5.78886Z" fill="#640915"/>
</svg>
