<svg width="329" height="289" viewBox="0 0 329 289" fill="none" xmlns="http://www.w3.org/2000/svg">
<path fill-rule="evenodd" clip-rule="evenodd" d="M297.785 158.292C297.785 229.95 239.651 288.042 167.942 288.042C96.2334 288.042 38.1016 229.95 38.1016 158.292C38.1016 86.6342 96.2334 28.5425 167.942 28.5425C239.651 28.5425 297.785 86.6342 297.785 158.292Z" stroke="#E9EAEC" stroke-dasharray="5.02 5.02"/>
<path fill-rule="evenodd" clip-rule="evenodd" d="M264.365 158.292C264.365 211.506 221.195 254.645 167.943 254.645C114.69 254.645 71.5229 211.506 71.5229 158.292C71.5229 105.078 114.69 61.9392 167.943 61.9392C221.195 61.9392 264.365 105.078 264.365 158.292Z" stroke="#E9EAEC" stroke-dasharray="5.05 5.05"/>
<path d="M13.5728 175.761L11.1621 175.688" stroke="#D2D8DF" stroke-linecap="round"/>
<path d="M11.8436 171.194L10.1147 172.808" stroke="#D2D8DF" stroke-linecap="round"/>
<path d="M7.33755 169.108L7.30127 171.463" stroke="#D2D8DF" stroke-linecap="round"/>
<path d="M2.69287 170.725L4.37172 172.442" stroke="#D2D8DF" stroke-linecap="round"/>
<path d="M0.631348 175.099L3.04079 175.172" stroke="#D2D8DF" stroke-linecap="round"/>
<path d="M2.35986 179.666L4.09001 178.052" stroke="#D2D8DF" stroke-linecap="round"/>
<path d="M6.8667 181.753L6.90298 179.397" stroke="#D2D8DF" stroke-linecap="round"/>
<path d="M11.5114 180.135L9.83252 178.417" stroke="#D2D8DF" stroke-linecap="round"/>
<path d="M327.954 142.183L326.894 143.329" stroke="#D2D8DF" stroke-linecap="round"/>
<path d="M322.98 143.179L323.779 143.915" stroke="#D2D8DF" stroke-linecap="round"/>
<path d="M322.173 148.26L323.233 147.114" stroke="#D2D8DF" stroke-linecap="round"/>
<path d="M327.147 147.264L326.349 146.528" stroke="#D2D8DF" stroke-linecap="round"/>
<path d="M230.905 7.45084L228.342 7.38208" stroke="#D2D8DF" stroke-linecap="round"/>
<path d="M224.272 1.26685L224.233 3.4558" stroke="#D2D8DF" stroke-linecap="round"/>
<path d="M217.139 6.83496L219.702 6.90247" stroke="#D2D8DF" stroke-linecap="round"/>
<path d="M223.771 13.019L223.81 10.8301" stroke="#D2D8DF" stroke-linecap="round"/>
<path fill-rule="evenodd" clip-rule="evenodd" d="M43.5871 244.145C40.8317 244.986 36.2423 249.118 34.672 254.017C34.4084 249.466 31.5763 243.744 28.46 242.92C32.2623 241.548 36.3806 236.506 37.4761 232.258C37.2779 236.71 41.2392 243.176 43.5871 244.145Z" fill="#FFD428"/>
<path fill-rule="evenodd" clip-rule="evenodd" d="M84.2728 19.1756C82.8504 19.4269 80.3296 21.1771 79.2687 23.4773C79.3951 21.2408 78.308 18.2843 76.8018 17.7017C78.7746 17.2517 81.114 15.029 81.9009 13.0188C81.5493 15.1815 83.1569 18.5668 84.2728 19.1756Z" fill="#FFD428"/>
<path fill-rule="evenodd" clip-rule="evenodd" d="M272.8 35.4162C270.9 35.3749 269.394 33.8035 269.436 31.9058C269.478 30.0082 271.05 28.503 272.948 28.5443C274.848 28.5855 276.354 30.1569 276.313 32.0546C276.271 33.9523 274.699 35.4574 272.8 35.4162Z" fill="#FF8900"/>
<path fill-rule="evenodd" clip-rule="evenodd" d="M272.809 260.628C271.157 260.593 269.846 259.224 269.881 257.573C269.916 255.92 271.285 254.61 272.939 254.645C274.593 254.681 275.904 256.049 275.868 257.701C275.832 259.353 274.463 260.664 272.809 260.628Z" fill="#EBECEF"/>
<path fill-rule="evenodd" clip-rule="evenodd" d="M24.1784 81.0285C23.1551 81.006 22.3432 80.1596 22.3657 79.1358C22.387 78.1132 23.2351 77.3031 24.2585 77.3244C25.2818 77.3469 26.0937 78.1932 26.0724 79.2158C26.0499 80.2397 25.2017 81.051 24.1784 81.0285Z" stroke="#D2D8DF" stroke-linecap="round"/>
<path fill-rule="evenodd" clip-rule="evenodd" d="M223.81 73.8578C223.81 80.4397 218.47 85.7752 211.884 85.7752C205.297 85.7752 199.958 80.4397 199.958 73.8578C199.958 67.276 205.297 61.9392 211.884 61.9392C218.47 61.9392 223.81 67.276 223.81 73.8578Z" fill="white"/>
<path fill-rule="evenodd" clip-rule="evenodd" d="M91.8267 231.357L74.0598 121.764C73.7959 120.141 74.5427 118.521 75.9464 117.666L122.873 89.0422C123.796 88.4796 124.905 88.3084 125.953 88.5671L183.838 102.873C184.923 103.141 186.07 102.948 187.008 102.342L225.732 77.3036C228.009 75.831 231.064 76.9698 231.817 79.5738L264.398 191.987C264.875 193.633 264.262 195.401 262.869 196.4L227.218 221.931C226.251 222.622 225.031 222.855 223.879 222.567L156.068 205.627C155.12 205.391 154.117 205.504 153.247 205.948L97.6626 234.312C95.2181 235.558 92.267 234.065 91.8267 231.357Z" fill="#F1F2F7"/>
<path fill-rule="evenodd" clip-rule="evenodd" d="M212.032 83.1293C206.392 83.1293 201.821 78.5601 201.821 72.9246C201.821 67.289 206.392 62.7199 212.032 62.7199C217.673 62.7199 222.244 67.289 222.244 72.9246C222.244 78.5601 217.673 83.1293 212.032 83.1293ZM212.032 51.3814C200.456 51.0538 190.806 60.1659 190.478 71.7333C190.47 72.062 190.468 72.3921 190.475 72.7209C190.475 90.59 210.443 107.122 211.284 107.802C211.708 108.165 212.333 108.165 212.759 107.802C213.643 107.009 233.591 88.8211 233.591 72.7209C233.808 61.1498 224.6 51.5939 213.02 51.3776C212.691 51.3714 212.362 51.3726 212.032 51.3814Z" fill="#FF5722"/>
<path d="M131.61 181.627L166.173 190.637C169.809 191.585 172.67 187.511 170.534 184.422C158.603 167.18 136.272 131.446 157.283 132.946C184.933 134.92 179.666 159.872 185.591 163.185C191.517 166.496 227.066 159.098 228.382 146.023C229.699 132.946 225.091 126.368 215.874 122.421C206.658 118.473 211.284 107.802 211.284 107.802" stroke="#0E1D25" stroke-width="2" stroke-dasharray="7"/>
<path fill-rule="evenodd" clip-rule="evenodd" d="M87.408 136.317L85.0423 127.125C84.5194 125.095 85.4201 122.966 87.2429 121.924L116.074 105.461C116.301 105.331 116.538 105.221 116.783 105.131L126.339 101.637C127.166 101.335 128.063 101.272 128.925 101.459L149.895 105.993C151.575 106.355 152.917 107.613 153.389 109.263C154.288 112.408 151.747 115.474 148.488 115.177L139.264 114.34C136.312 114.071 133.864 116.589 134.217 119.529L135.066 126.603C135.324 128.749 134.071 130.789 132.04 131.53L112.657 138.605C111.291 139.102 109.772 138.935 108.548 138.152L103.232 134.754C101.062 133.365 98.1754 134.003 96.7918 136.176L95.8485 137.657C93.6605 141.092 88.4238 140.261 87.408 136.317Z" fill="#D8DBEA"/>
<path fill-rule="evenodd" clip-rule="evenodd" d="M214.835 177.918L221.452 206.262C222.213 209.52 226.065 210.936 228.757 208.947L250.791 192.672C252.332 191.535 253.018 189.571 252.521 187.722L247.352 168.471C246.669 165.925 244.011 164.454 241.491 165.225L218.007 172.41C215.664 173.126 214.278 175.534 214.835 177.918Z" fill="#D8DBEA"/>
<path fill-rule="evenodd" clip-rule="evenodd" d="M187.649 187.304L202.762 188.272C204.741 188.399 206.424 189.765 206.953 191.676L209.89 202.279C210.836 205.691 207.776 208.866 204.328 208.05L189.369 204.51C187.873 204.156 186.647 203.086 186.095 201.652L183.004 193.62C181.785 190.452 184.26 187.088 187.649 187.304Z" fill="#D8DBEA"/>
<path fill-rule="evenodd" clip-rule="evenodd" d="M117.701 180.403C111.595 180.403 106.645 175.456 106.645 169.355C106.645 163.254 111.595 158.307 117.701 158.307C123.807 158.307 128.756 163.254 128.756 169.355C128.756 175.456 123.807 180.403 117.701 180.403ZM117.7 146.032C105.166 145.677 94.7206 155.542 94.3653 168.065C94.3553 168.422 94.354 168.778 94.3603 169.134C94.3603 188.48 115.98 206.378 116.89 207.114C117.349 207.508 118.027 207.508 118.486 207.114C119.445 206.255 141.039 186.566 141.039 169.134C141.276 156.608 131.305 146.262 118.769 146.027C118.412 146.021 118.056 146.022 117.7 146.032Z" fill="#FFA53C"/>
</svg>
