<svg width="111" height="110" viewBox="0 0 111 110" fill="none" xmlns="http://www.w3.org/2000/svg">
<rect x="0.652344" y="0.5" width="109" height="109" rx="54.5" fill="#FF5722" stroke="#D0CACA"/>
<path d="M50.2845 71.0684H50.4938C57.642 71.0684 61.0873 68.251 61.683 61.94C61.7474 61.2799 61.2644 60.6842 60.5882 60.6198C59.9442 60.5554 59.3325 61.0545 59.2681 61.7146C58.8012 66.7698 56.4185 68.6535 50.4777 68.6535H50.2684C43.7159 68.6535 41.3976 66.3351 41.3976 59.7826V49.2858C41.3976 42.7333 43.7159 40.4149 50.2684 40.4149H50.4777C56.4507 40.4149 58.8334 42.3308 59.2681 47.4826C59.3486 48.1427 59.912 48.6418 60.5882 48.5774C60.7469 48.565 60.9016 48.5214 61.0433 48.4491C61.1851 48.3768 61.3112 48.2772 61.4144 48.156C61.5177 48.0349 61.5959 47.8945 61.6448 47.743C61.6936 47.5916 61.7121 47.4319 61.6991 47.2733C61.1517 40.8657 57.6903 38 50.4938 38H50.2845C42.3797 38 38.9988 41.3809 38.9988 49.2858V59.7826C38.9988 67.6875 42.3797 71.0684 50.2845 71.0684Z" fill="white"/>
<path d="M50.6705 55.7411H68.9918C69.6518 55.7411 70.1992 55.1937 70.1992 54.5336C70.1992 53.8736 69.6518 53.3262 68.9918 53.3262H50.6705C50.0104 53.3262 49.4631 53.8736 49.4631 54.5336C49.4631 55.1937 50.0104 55.7411 50.6705 55.7411Z" fill="white"/>
<path d="M65.4029 61.1351C65.7088 61.1351 66.0147 61.0224 66.2562 60.7809L71.6495 55.3875C71.8741 55.1603 72 54.8537 72 54.5343C72 54.2148 71.8741 53.9082 71.6495 53.681L66.2562 48.2877C65.7893 47.8208 65.0165 47.8208 64.5496 48.2877C64.0827 48.7545 64.0827 49.5273 64.5496 49.9942L69.0897 54.5343L64.5496 59.0743C64.0827 59.5412 64.0827 60.314 64.5496 60.7809C64.775 61.0224 65.097 61.1351 65.4029 61.1351Z" fill="white"/>
</svg>
