<svg width="49" height="49" viewBox="0 0 49 49" fill="none" xmlns="http://www.w3.org/2000/svg">
<circle cx="24.5" cy="24.5" r="24.5" fill="#FF5722"/>
<circle cx="24.0455" cy="24.0455" r="20.0455" fill="#FF5722"/>
<path d="M24.8042 33.6587C28.2473 30.1172 31.6905 26.946 31.6905 23.0342C31.6905 19.1223 28.6074 15.9512 24.8042 15.9512C21.0011 15.9512 17.918 19.1223 17.918 23.0342C17.918 26.946 21.3611 30.1172 24.8042 33.6587Z" fill="#F5F6FA" stroke="#F5F6FA" stroke-width="1.5" stroke-linecap="round" stroke-linejoin="round"/>
<path d="M24.8054 24.8051C25.892 24.8051 26.7729 23.9243 26.7729 22.8376C26.7729 21.751 25.892 20.8701 24.8054 20.8701C23.7187 20.8701 22.8379 21.751 22.8379 22.8376C22.8379 23.9243 23.7187 24.8051 24.8054 24.8051Z" fill="#FF5722" stroke="#FF5722" stroke-width="1.5" stroke-linecap="round" stroke-linejoin="round"/>
</svg>
