<svg width="22" height="26" viewBox="0 0 22 26" fill="none" xmlns="http://www.w3.org/2000/svg">
<path d="M13.4683 11.2856C13.4683 10.6036 13.1974 9.94956 12.7152 9.46733C12.2329 8.9851 11.5789 8.71418 10.8969 8.71418C10.2149 8.71418 9.56088 8.9851 9.07865 9.46733C8.59642 9.94956 8.32551 10.6036 8.32551 11.2856C8.32551 11.9676 8.59642 12.6216 9.07865 13.1038C9.56088 13.5861 10.2149 13.857 10.8969 13.857C11.5789 13.857 12.2329 13.5861 12.7152 13.1038C13.1974 12.6216 13.4683 11.9676 13.4683 11.2856ZM21.1825 11.2856C21.1825 16.2124 15.8734 21.5986 12.8837 24.242C12.3371 24.7302 11.6298 25 10.8969 25C10.164 25 9.45673 24.7302 8.91007 24.242C5.9204 21.5986 0.611328 16.2124 0.611328 11.2856C0.611328 9.93486 0.877372 8.59736 1.39427 7.34946C1.91117 6.10155 2.6688 4.96768 3.6239 4.01258C4.57901 3.05747 5.71288 2.29984 6.96079 1.78294C8.20869 1.26604 9.54618 1 10.8969 1C12.2476 1 13.5851 1.26604 14.833 1.78294C16.0809 2.29984 17.2148 3.05747 18.1699 4.01258C19.125 4.96768 19.8826 6.10155 20.3995 7.34946C20.9164 8.59736 21.1825 9.93486 21.1825 11.2856ZM19.4682 11.2856C19.4682 9.01232 18.5652 6.83218 16.9577 5.22474C15.3503 3.61731 13.1702 2.71426 10.8969 2.71426C8.62365 2.71426 6.4435 3.61731 4.83607 5.22474C3.22864 6.83218 2.32559 9.01232 2.32559 11.2856C2.32559 13.185 3.37986 15.3912 5.01698 17.5992C6.61811 19.7557 8.59465 21.674 10.0449 22.958C10.2783 23.1695 10.582 23.2867 10.8969 23.2867C11.2119 23.2867 11.5155 23.1695 11.7489 22.958C13.1992 21.674 15.1774 19.7575 16.7768 17.5992C18.4139 15.3912 19.4682 13.185 19.4682 11.2856Z" fill="#FF5722" stroke="#FF5722" stroke-width="0.6"/>
</svg>
