<svg width="23" height="23" viewBox="0 0 23 23" fill="none" xmlns="http://www.w3.org/2000/svg">
<path d="M13.207 2.14133L15.1587 6.0449C15.4249 6.58829 16.1346 7.10951 16.7335 7.20931L20.2711 7.79707C22.5334 8.17411 23.0657 9.81539 21.4355 11.4345L18.6853 14.1847C18.2195 14.6505 17.9644 15.5487 18.1086 16.192L18.896 19.5965C19.517 22.2913 18.0864 23.3337 15.7021 21.9253L12.3863 19.9624C11.7875 19.6076 10.8005 19.6076 10.1906 19.9624L6.87475 21.9253C4.50156 23.3337 3.0599 22.2802 3.68093 19.5965L4.46829 16.192C4.61246 15.5487 4.3574 14.6505 3.89163 14.1847L1.14139 11.4345C-0.477703 9.81539 0.0435121 8.17411 2.30581 7.79707L5.84341 7.20931C6.43117 7.10951 7.14091 6.58829 7.40706 6.0449L9.35884 2.14133C10.4235 0.0232024 12.1534 0.0232024 13.207 2.14133Z" fill="white"/>
</svg>
