<svg width="34" height="30" viewBox="0 0 34 30" fill="none" xmlns="http://www.w3.org/2000/svg">
<path d="M33.0357 7.38478C32.8824 7.16324 32.6777 6.98216 32.4391 6.85706C32.2005 6.73196 31.9351 6.66656 31.6657 6.66647H8.88806L6.96479 2.04995C6.71261 1.442 6.28559 0.922626 5.73787 0.557675C5.19014 0.192724 4.54639 -0.00136836 3.88822 7.26185e-06H0V3.33324H3.88822L11.7946 22.3077C11.9213 22.6112 12.1349 22.8706 12.4087 23.053C12.6824 23.2353 13.004 23.3327 13.3329 23.3326H26.6659C27.3608 23.3326 27.9825 22.901 28.2275 22.2527L33.2273 8.91974C33.3218 8.66745 33.3537 8.39601 33.3204 8.12868C33.287 7.86135 33.1893 7.60609 33.0357 7.38478Z" fill="#F2F2F2"/>
<path d="M14.164 29.9998C15.5447 29.9998 16.6639 28.8806 16.6639 27.4999C16.6639 26.1193 15.5447 25 14.164 25C12.7833 25 11.6641 26.1193 11.6641 27.4999C11.6641 28.8806 12.7833 29.9998 14.164 29.9998Z" fill="#F2F2F2"/>
<path d="M25.8359 29.9998C27.2165 29.9998 28.3358 28.8806 28.3358 27.4999C28.3358 26.1193 27.2165 25 25.8359 25C24.4552 25 23.3359 26.1193 23.3359 27.4999C23.3359 28.8806 24.4552 29.9998 25.8359 29.9998Z" fill="#F2F2F2"/>
</svg>
