<svg width="34" height="34" viewBox="0 0 34 34" fill="none" xmlns="http://www.w3.org/2000/svg">
<path d="M28.7204 26.9468C29.6309 26.9468 30.3758 27.6918 30.3758 28.6023C30.3758 29.5128 29.6309 30.2577 28.7204 30.2577C27.8099 30.2577 27.065 29.5128 27.065 28.6023C27.065 27.6918 27.8099 26.9468 28.7204 26.9468ZM28.7204 23.636C25.9724 23.636 23.7541 25.8543 23.7541 28.6023C23.7541 31.3503 25.9724 33.5686 28.7204 33.5686C31.4684 33.5686 33.6867 31.3503 33.6867 28.6023C33.6867 25.8543 31.4684 23.636 28.7204 23.636ZM13.8215 12.048H5.5444V15.3589H13.8215V12.048ZM25.4095 10.3926H20.4432V13.7034H25.4095V18.0903L19.6155 25.2914H13.8215V17.0143H7.19983C3.54134 17.0143 0.578125 19.9775 0.578125 23.636V28.6023H3.88898C3.88898 31.3503 6.10725 33.5686 8.85526 33.5686C11.6033 33.5686 13.8215 31.3503 13.8215 28.6023H21.271L28.7204 19.2491V13.7034C28.7204 12.8253 28.3716 11.9832 27.7507 11.3623C27.1297 10.7414 26.2876 10.3926 25.4095 10.3926ZM8.85526 30.2577C7.94477 30.2577 7.19983 29.5128 7.19983 28.6023H10.5107C10.5107 29.5128 9.76574 30.2577 8.85526 30.2577Z" fill="white"/>
<path d="M5.9719 7.06461C6.03146 6.17133 6.26706 5.32937 6.64085 4.57183C7.02979 3.78495 7.56963 3.08995 8.21841 2.52228C8.86719 1.95462 9.62772 1.51184 10.4606 1.23091C11.2611 0.959691 12.1268 0.839285 13.0201 0.898851C13.9134 0.958417 14.7554 1.19401 15.5129 1.56781C16.2998 1.95675 16.9948 2.49658 17.5624 3.14536C18.1301 3.79414 18.5729 4.55467 18.8538 5.38753C19.125 6.18808 19.2454 7.05378 19.1859 7.94707C19.1263 8.84036 18.8907 9.68232 18.5169 10.4399C18.1281 11.2254 17.5895 11.9205 16.9394 12.4894L16.938 12.4906C16.2878 13.0595 15.5287 13.5011 14.6971 13.7821C14.4393 13.8691 14.1758 13.9413 13.9057 13.9959C13.928 13.8588 13.9439 13.7187 13.9534 13.5768C13.9714 13.3075 13.9639 13.0431 13.935 12.7839C14.0653 12.7503 14.1944 12.7128 14.3213 12.6698C15.003 12.4395 15.6277 12.0747 16.1643 11.6064C16.6996 11.1381 17.1441 10.566 17.4629 9.92095C17.771 9.29889 17.9636 8.60712 18.0128 7.86885C18.062 7.13057 17.963 6.41936 17.7403 5.76191C17.51 5.08021 17.1452 4.45551 16.6769 3.91892C16.2086 3.38364 15.6365 2.93909 14.9915 2.6203C14.3694 2.31228 13.6776 2.11969 12.9394 2.07046C12.2011 2.02123 11.4899 2.12027 10.8324 2.34297C10.1507 2.57328 9.52602 2.93803 8.98943 3.4063C8.45415 3.87465 8.0096 4.4467 7.69081 5.09179C7.38279 5.71385 7.19019 6.40562 7.14096 7.14389C7.09173 7.88217 7.19077 8.59338 7.41347 9.25083C7.43326 9.3102 7.45446 9.36836 7.47565 9.42651C7.11833 9.6204 6.7907 9.86377 6.50134 10.1466C6.4269 9.97674 6.36061 9.80342 6.29983 9.62652C6.03405 8.82369 5.91233 7.9579 5.9719 7.06461ZM9.388 8.05508C9.22643 8.0443 9.08368 7.96881 8.98436 7.85531C8.88505 7.74181 8.82918 7.5903 8.83996 7.42872C8.85073 7.26714 8.92622 7.12439 9.03973 7.02508C9.15323 6.92577 9.30474 6.8699 9.46632 6.88067L12.5495 7.08626L14.0693 4.87321C14.16 4.74071 14.2975 4.6562 14.4459 4.62782C14.5929 4.60068 14.7507 4.62835 14.8845 4.71908C15.017 4.80973 15.1028 4.9474 15.1312 5.09576C15.1583 5.24271 15.1307 5.40053 15.0399 5.53434L13.336 8.01485C13.2802 8.09954 13.2043 8.16969 13.1154 8.21654C13.0224 8.26576 12.9152 8.29028 12.8048 8.28292L9.388 8.05508Z" fill="white"/>
</svg>
